<svg width="28" height="28" viewBox="0 0 28 28" fill="none" xmlns="http://www.w3.org/2000/svg">
<g clip-path="url(#clip0_1_32)">
<path d="M19.1027 27.6508V16.9568H22.6944C22.8743 15.5661 23.051 14.203 23.2325 12.7962H19.1141C19.1043 12.6844 19.0914 12.6114 19.0914 12.5385C19.0914 11.6746 19.0865 10.8107 19.0946 9.94683C19.0962 9.72802 19.1205 9.50435 19.1675 9.2904C19.3393 8.53025 19.9083 8.10722 20.8078 8.08453C21.5371 8.0667 22.2665 8.07805 22.9959 8.07481C23.0996 8.07481 23.2049 8.07481 23.3314 8.07481V4.32266C21.6522 4.25783 19.9698 3.95636 18.3069 4.43774C16.4316 4.98071 15.3295 6.26438 14.9502 8.14774C14.8108 8.83658 14.8044 9.55622 14.7817 10.2629C14.7541 11.0862 14.7752 11.9112 14.7752 12.7686H11.2111V16.9357H14.7525V27.6492H14.4283C10.1867 27.6492 5.94347 27.6378 1.70185 27.6589C0.826615 27.6654 -0.00323213 27.0689 9.46571e-06 25.9554C0.019459 20.1886 0.00973424 14.4202 0.00973424 8.65343C0.00973424 6.31138 0.00811345 3.97095 0.00973424 1.6289C0.011355 0.824985 0.4279 0.243119 1.13781 0.0567279C1.31934 0.00972478 1.51707 0.0016208 1.70671 0.0016208C9.788 0 17.8693 0 25.9506 0C27.0511 0 27.6638 0.612661 27.6638 1.7067C27.6638 9.78637 27.6638 17.866 27.6638 25.9457C27.6638 27.0171 27.0349 27.6492 25.97 27.6492C23.7917 27.6492 21.6133 27.6492 19.4334 27.6492H19.1027V27.6508Z" fill="#B0D8F8"/>
</g>
<defs>
<clipPath id="clip0_1_32">
<rect width="27.6638" height="27.6605" fill="white"/>
</clipPath>
</defs>
</svg>
