<svg width="29" height="28" viewBox="0 0 29 28" fill="none" xmlns="http://www.w3.org/2000/svg">
<g clip-path="url(#clip0_1_38)">
<path d="M24.888 27.6605H4.24697C4.20695 27.6434 4.17074 27.6167 4.12881 27.6091C2.4516 27.2774 1.37286 26.2863 0.867789 24.6606C0.816329 24.4929 0.778211 24.3194 0.734375 24.1498C0.734375 17.2695 0.734375 10.391 0.734375 3.51069C0.751528 3.47067 0.778211 3.43255 0.785835 3.39252C1.13271 1.40656 2.78704 0 4.79397 0C11.3217 0 17.8514 0 24.3791 0C26.5919 0 28.3987 1.80681 28.3987 4.01957C28.4025 10.5549 28.4006 17.0922 28.3987 23.6276C28.3987 25.3086 27.36 26.8048 25.7838 27.3937C25.4922 27.5023 25.1872 27.5709 24.888 27.6586V27.6605ZM21.8614 13.8769C21.8557 9.87453 18.5756 6.59636 14.5732 6.58874C10.567 6.58302 7.26594 9.88025 7.26975 13.8884C7.27356 17.887 10.5555 21.169 14.558 21.1766C18.5642 21.1842 21.8671 17.8832 21.8614 13.8769ZM23.4872 6.58874C24.3639 6.58493 25.1053 5.83781 25.1034 4.963C25.0996 4.08628 24.3544 3.34488 23.4776 3.34869C22.6009 3.3525 21.8595 4.09962 21.8614 4.97443C21.8652 5.85115 22.6123 6.59255 23.4872 6.59065V6.58874Z" fill="#B0D8F8"/>
<path d="M14.5894 8.2124C17.7227 8.21621 20.2443 10.7606 20.2404 13.913C20.2347 17.0425 17.6865 19.5621 14.5322 19.5564C11.4065 19.5507 8.88882 16.9987 8.89454 13.8425C8.90026 10.7301 11.4504 8.2105 14.5894 8.21431V8.2124Z" fill="#B0D8F8"/>
</g>
<defs>
<clipPath id="clip0_1_38">
<rect width="27.6662" height="27.6605" fill="white" transform="translate(0.734375)"/>
</clipPath>
</defs>
</svg>
