<svg width="29" height="28" viewBox="0 0 29 28" fill="none" xmlns="http://www.w3.org/2000/svg">
<g clip-path="url(#clip0_1_34)">
<path d="M0.466718 26.0395C0.466718 17.8988 0.466718 9.75991 0.466718 1.61918C0.48171 1.59856 0.506072 1.57982 0.513568 1.55733C0.826529 0.513504 1.51055 2.3136e-05 2.5956 2.3136e-05C10.399 2.3136e-05 18.2043 2.3136e-05 26.0096 2.3136e-05C26.1708 2.3136e-05 26.3357 -0.00185088 26.4931 0.0281334C27.4882 0.223031 28.1329 1.01574 28.1329 2.04083C28.1329 9.79927 28.1329 17.5577 28.1329 25.3143C28.1329 26.6411 27.7618 27.1789 26.5287 27.6362C26.5212 27.638 26.5174 27.6493 26.5118 27.6568H2.08774C2.00716 27.6249 1.92658 27.5893 1.84412 27.5612C1.2688 27.3663 0.858388 26.9896 0.618513 26.4312C0.562293 26.3019 0.515442 26.1688 0.464844 26.0376L0.466718 26.0395ZM19.0589 20.8916H22.4171V20.5561C22.4171 18.8095 22.4208 17.063 22.4152 15.3164C22.4152 14.9041 22.404 14.4881 22.3515 14.0777C22.1285 12.3067 21.1371 10.74 18.937 10.5582C17.6084 10.4477 16.4877 10.845 15.6875 11.9675C15.6463 12.0256 15.5938 12.0781 15.4963 12.1943V10.8075H12.1643V20.8897H15.5038C15.5038 20.7623 15.5038 20.6555 15.5038 20.5486C15.5038 18.7927 15.5057 17.0386 15.5038 15.2826C15.5038 14.7429 15.6163 14.2463 15.9798 13.8322C16.469 13.2737 17.0874 13.0825 17.8051 13.2456C18.461 13.3936 18.7965 13.8621 18.9464 14.4806C19.0083 14.7411 19.0495 15.0128 19.0532 15.2789C19.0682 16.0885 19.0607 16.8999 19.0626 17.7095C19.0626 18.7627 19.0626 19.814 19.0626 20.8953L19.0589 20.8916ZM6.93208 10.7962V20.8841H10.251V10.7962H6.93208ZM6.72407 7.63665C6.72407 8.65611 7.48492 9.37761 8.57372 9.38885C9.68314 9.4001 10.504 8.65237 10.4946 7.64227C10.4852 6.61343 9.70001 5.88444 8.60933 5.88819C7.50178 5.89381 6.72594 6.61343 6.72407 7.63665Z" fill="#B0D8F8"/>
</g>
<defs>
<clipPath id="clip0_1_34">
<rect width="27.6661" height="27.6605" fill="white" transform="translate(0.466797)"/>
</clipPath>
</defs>
</svg>
