<svg width="29" height="28" viewBox="0 0 29 28" fill="none" xmlns="http://www.w3.org/2000/svg">
<g clip-path="url(#clip0_1_36)">
<path d="M28.5217 1.61949V26.0399C28.4863 26.129 28.4496 26.2181 28.417 26.3086C28.2176 26.8729 27.8442 27.2731 27.2955 27.5079C27.1668 27.5631 27.0339 27.6097 26.9023 27.6606H2.48619C2.39709 27.6253 2.30799 27.5871 2.21747 27.556C1.40992 27.2774 0.868248 26.5405 0.868248 25.6948C0.866834 17.7833 0.866834 9.87323 0.868248 1.96174C0.869662 0.884061 1.75076 0.00296327 2.82844 0.00154899C10.7371 0.000134711 18.6472 0.000134711 26.5558 0.00154899C27.403 0.00154899 28.137 0.541804 28.4156 1.35077C28.4467 1.44129 28.4849 1.53039 28.5203 1.61949H28.5217ZM7.18443 18.82C7.31454 18.9048 7.38526 18.9572 7.46163 18.9996C10.1756 20.5001 13.0042 20.7066 15.7974 19.3942C19.2751 17.7607 20.886 14.8388 21.009 11.0513C21.0161 10.8533 21.0599 10.7289 21.2226 10.6044C21.7331 10.2169 22.1659 9.75302 22.5223 9.21559C21.9764 9.36409 21.439 9.50976 21.043 9.61583C21.1985 9.41783 21.4277 9.15336 21.6257 8.86626C21.8194 8.58482 21.9792 8.28217 22.1588 7.97809C21.521 8.20155 20.9426 8.41369 20.3556 8.60038C20.2566 8.63149 20.0855 8.58624 20.0063 8.51269C18.2964 6.94284 15.5923 7.61604 14.8314 9.80535C14.6349 10.3696 14.6363 10.9453 14.7324 11.5548C12.0807 11.3653 9.92248 10.2636 8.19422 8.24539C7.78691 8.98506 7.67518 9.73746 7.85055 10.528C8.02593 11.3186 8.47284 11.9437 9.12058 12.4345L9.07391 12.5109C8.63972 12.3892 8.20695 12.2676 7.77701 12.146C7.62993 13.3962 8.60295 14.6408 10.1968 15.2744H8.84904C9.38929 16.6349 10.3482 17.3534 11.8176 17.4905C10.4203 18.5343 8.91692 18.9543 7.18301 18.8171L7.18443 18.82Z" fill="#B0D8F8"/>
</g>
<defs>
<clipPath id="clip0_1_36">
<rect width="27.6549" height="27.6605" fill="white" transform="translate(0.867188)"/>
</clipPath>
</defs>
</svg>
