<svg width="29" height="28" viewBox="0 0 29 28" fill="none" xmlns="http://www.w3.org/2000/svg">
<g clip-path="url(#clip0_1_41)">
<path d="M0.601562 24.4192C0.601562 17.3599 0.601562 10.3006 0.601562 3.24131C0.620328 3.19368 0.64631 3.14749 0.657136 3.09769C0.973256 1.62174 1.84367 0.640179 3.27631 0.16239C3.47912 0.0952691 3.68987 0.0534084 3.89701 0C10.9202 0 17.9434 0 24.9666 0C25.0172 0.0173216 25.0662 0.0418607 25.1182 0.0512432C26.9456 0.368085 28.2599 1.91116 28.2606 3.75663C28.2628 10.4731 28.2628 17.1896 28.2606 23.906C28.2606 25.9861 26.5833 27.6591 24.4997 27.6598C17.7832 27.662 11.0667 27.662 4.35026 27.6598C2.69315 27.6598 1.2403 26.5707 0.761066 24.9814C0.704771 24.7945 0.654971 24.6061 0.601562 24.4192ZM8.80914 13.8313C8.80914 15.505 8.81058 17.1787 8.80697 18.8525C8.80697 19.0697 8.85316 19.2725 9.07401 19.3252C9.21475 19.3591 9.39807 19.3209 9.53376 19.2566C12.9259 17.6493 16.3137 16.0341 19.703 14.421C19.8907 14.3315 20.0516 14.2218 20.0502 13.9872C20.0487 13.7548 19.8878 13.6473 19.7023 13.5535C16.3123 11.8379 12.9245 10.1202 9.53448 8.40461C9.08195 8.17582 8.80914 8.3512 8.80914 8.86435C8.80914 10.52 8.80914 12.1757 8.80914 13.8313Z" fill="#B0D8F8"/>
</g>
<defs>
<clipPath id="clip0_1_41">
<rect width="27.6605" height="27.6605" fill="white" transform="translate(0.601562)"/>
</clipPath>
</defs>
</svg>
